# This file uses centimeters as units for non-parametric coordinates.

v 0.896930 -0.116701 -1.078061
v 0.736314 -0.076033 1.066762
v -1.052088 -0.064600 0.954513
v -0.692441 -0.114299 -0.835835
v 1.303753 1.083753 -1.023542
v 0.444005 1.032712 1.513821
v -1.019775 1.174950 1.105961
v -0.681862 1.180458 -1.481573
v 1.045407 -0.157597 -0.147996
v 0.067265 -0.072713 -0.783522
v 1.200361 0.538245 -1.221685
v -0.154563 -0.114500 1.228987
v 1.155268 0.478039 1.381585
v -1.094633 -0.254018 -0.118459
v -1.648060 0.452009 0.853586
v -1.185727 0.481559 -1.133555
v 0.975431 1.246559 0.047895
v 0.105258 1.126820 -1.585067
v -0.344848 1.152380 1.730000
v -1.177093 1.303243 0.009798
v -0.015789 -0.312706 -0.060242
v 0.046107 1.351565 -0.253730
v 1.175182 0.692469 0.169032
v 0.260077 0.452640 1.365451
v -1.648881 0.429819 -0.064031
v -0.199824 0.336820 -1.536424
v 1.008866 -0.126459 0.470257
v -0.321458 -0.060305 -0.702046
v 1.385825 0.807576 -1.181814
v -0.537873 -0.057997 1.154378
v 0.936321 0.677546 1.426494
v -0.862364 -0.219203 -0.537108
v -1.281588 0.883991 1.218077
v -0.974527 0.926074 -1.431442
v 0.808457 1.346412 0.902078
v -0.174992 1.147173 -1.801163
v -0.610285 1.147948 1.327881
v -1.356023 1.245036 -0.716849
v 1.042022 -0.190494 -0.637866
v 0.468949 -0.142859 -1.026806
v 1.081272 0.175115 -1.287556
v 0.243586 -0.141476 1.191072
v 1.014587 0.183491 1.312948
v -1.155731 -0.217847 0.459469
v -1.571341 0.110279 0.770709
v -1.063276 0.074521 -1.015607
v 1.231954 1.216866 -0.594471
v 0.770454 1.122192 -1.299703
v -0.065279 1.102928 1.796044
v -1.176430 1.281231 0.646380
v -0.476225 -0.274043 -0.037390
v 0.480423 -0.312115 -0.111060
v 0.172793 -0.188473 -0.532460
v -0.106274 -0.274351 0.595963
v -0.198010 1.360380 0.630818
v 0.062998 1.276304 -0.994314
v 0.611501 1.352344 -0.290780
v -0.603343 1.343584 -0.011276
v 1.267461 0.630730 1.008356
v 1.267107 0.600208 -0.689727
v 1.268899 0.241091 -0.063884
v 1.050912 1.068503 0.197512
v -1.043570 0.402928 1.289593
v 0.667029 0.439932 1.448684
v -0.135120 0.156677 1.505020
v -0.066870 0.652060 1.602193
v -1.759897 0.319614 -0.724614
v -1.646483 0.462612 0.459024
v -1.548443 -0.153801 -0.255587
v -1.483055 1.068517 0.045330
v -0.775458 0.497559 -1.402503
v 0.556317 0.449266 -1.496503
v 0.153226 0.839249 -1.832230
v -0.180515 0.060946 -1.233899
v -0.630920 -0.226328 0.592326
v -0.677921 1.329703 0.698183
v 1.115930 1.067893 0.980967
v -0.944509 0.743625 1.392342
v -1.719440 0.916506 -0.699776
v -0.751048 0.149059 -1.123006
v -0.359688 -0.219676 -0.596748
v 0.548058 -0.284113 -0.657622
v 0.383454 -0.298149 0.533170
v 0.342781 1.370886 0.863692
v 0.801564 1.333314 -0.716665
v -0.544178 1.290048 -0.889409
v 1.347667 0.189763 0.746821
v 1.323792 0.127379 -0.856060
v 1.423543 0.897206 -0.707035
v -0.706694 0.190636 1.346937
v 0.494274 0.153436 1.399456
v 0.524189 0.691410 1.410453
v -1.346437 -0.078697 -0.808084
v -1.550380 0.033513 0.487642
v -1.434319 1.017100 0.746778
v -0.263198 0.916780 -1.716774
v 0.802037 0.850318 -1.528586
v 0.512712 0.114694 -1.198383
vt 0.155028 0.344089
vt 0.206316 0.378186
vt 0.155630 0.402329
vt 0.099783 0.387655
vt 0.896175 0.282885
vt 0.854473 0.349296
vt 0.794976 0.248970
vt 0.870663 0.174892
vt 0.949240 0.587705
vt 0.944083 0.694636
vt 0.905653 0.682602
vt 0.916733 0.604517
vt 0.336809 0.082005
vt 0.369246 0.000842
vt 0.489191 0.000000
vt 0.460672 0.063535
vt 0.485748 0.254952
vt 0.512673 0.310590
vt 0.481603 0.323059
vt 0.447322 0.276247
vt 0.276846 0.583529
vt 0.215363 0.578539
vt 0.223692 0.502410
vt 0.270084 0.523882
vt 0.288525 0.695621
vt 0.226456 0.694739
vt 0.220811 0.635843
vt 0.266533 0.646047
vt 0.149628 0.688747
vt 0.060049 0.668982
vt 0.053708 0.620010
vt 0.140662 0.629249
vt 0.046020 0.277128
vt 0.115533 0.299946
vt 0.042023 0.402498
vt 0.011393 0.383384
vt 0.133867 0.094672
vt 0.226136 0.127633
vt 0.165692 0.199396
vt 0.116225 0.149680
vt 0.273683 0.187557
vt 0.335575 0.267841
vt 0.258354 0.321530
vt 0.206193 0.274302
vt 0.422948 0.654063
vt 0.520455 0.684734
vt 0.477461 0.726331
vt 0.404599 0.713241
vt 0.422729 0.459207
vt 0.529375 0.479105
vt 0.539575 0.580737
vt 0.439840 0.553878
vt 0.744126 0.814485
vt 0.672331 0.787452
vt 0.683844 0.711964
vt 0.731678 0.707183
vt 0.016271 0.536299
vt 0.006598 0.482318
vt 0.054401 0.402498
vt 0.090851 0.431859
vt 0.857058 0.070133
vt 0.855242 0.125920
vt 0.818683 0.137473
vt 0.786060 0.070157
vt 0.829103 0.182611
vt 0.720806 0.251159
vt 0.693981 0.268226
vt 0.758736 0.168010
vt 0.408067 0.318081
vt 0.348488 0.225548
vt 0.431026 0.176751
vt 0.834672 0.401576
vt 0.821728 0.494375
vt 0.758928 0.488146
vt 0.747834 0.361119
vt 0.853441 0.628842
vt 0.844101 0.700647
vt 0.766741 0.707183
vt 0.766456 0.640000
vt 0.554998 0.057463
vt 0.491069 0.166304
vt 0.661203 0.071636
vt 0.642437 0.169965
vt 0.565426 0.199969
vt 0.608937 0.072162
vt 0.628288 0.255903
vt 0.619708 0.321108
vt 0.560004 0.310321
vt 0.556413 0.271543
vt 0.934356 0.187628
vt 0.907061 0.133559
vt 0.622627 0.581780
vt 0.617335 0.678426
vt 0.662917 0.562066
vt 0.672331 0.661064
vt 0.939564 0.506329
vt 0.869574 0.490922
vt 0.791582 0.866218
vt 0.744126 0.821215
vt 0.752056 0.707183
vt 0.791426 0.711743
vt 1.000000 0.606532
vt 0.999879 0.706758
vt 0.672331 0.596657
vt 0.677773 0.459778
vt 0.674914 0.687648
vt 0.387737 0.801509
vt 0.336809 0.833560
vt 0.336920 0.785916
vt 0.384519 0.726331
vt 0.506205 0.350977
vt 0.448079 0.354288
vt 0.559475 0.342029
vt 0.609960 0.361119
vt 0.324683 0.722893
vt 0.278588 0.749240
vt 0.320949 0.673747
vt 0.218381 0.752553
vt 0.143231 0.752483
vt 0.069266 0.722735
vt 0.808347 0.361119
vt 0.056221 0.145884
vt 0.000000 0.241327
vt 0.085645 0.065345
vt 0.116277 0.014773
vt 0.187902 0.035191
vt 0.273048 0.064123
vt 0.316518 0.068429
vt 0.336809 0.140426
vt 0.340137 0.610197
vt 0.336809 0.674909
vt 0.339988 0.536299
vt 0.336833 0.476818
vt 0.353162 0.419686
vt 0.429528 0.400325
vt 0.517650 0.412671
vt 0.604166 0.482239
vt 0.586459 0.423461
vt 0.646477 0.441109
vt 0.670954 0.491413
vt 0.000000 0.608449
vt 0.694133 0.143704
vt 0.736508 0.092307
vt 0.012308 0.682984
vt 0.019832 0.742597
vt 0.913859 0.076969
vt 0.232244 0.440506
vt 0.291247 0.454530
vt 0.685316 0.388716
vt 0.130148 0.436240
vt 0.867108 0.417288
vt 0.563922 0.000091
vt 0.582099 0.007382
vt 0.207942 0.000000
vt 0.293309 0.025246
vt 0.579472 0.365264
vt 0.639569 0.392860
vt 0.477201 0.361119
vt 0.693981 0.150197
vt 0.693822 0.237100
vt 0.668575 0.311882
vt 0.447322 0.276247
vt 0.431026 0.176751
vt 0.460672 0.063535
vt 0.215363 0.578539
vt 0.137636 0.563411
vt 0.152906 0.498683
vt 0.223692 0.502410
vt 0.220811 0.635843
vt 0.140662 0.629249
vt 0.137636 0.563411
vt 0.215363 0.578539
vt 0.140662 0.629249
vt 0.053708 0.620010
vt 0.058285 0.569867
vt 0.137636 0.563411
vt 0.115533 0.299946
vt 0.155028 0.344089
vt 0.099783 0.387655
vt 0.042023 0.402498
vt 0.165692 0.199396
vt 0.206193 0.274302
vt 0.155028 0.344089
vt 0.115533 0.299946
vt 0.206193 0.274302
vt 0.258354 0.321530
vt 0.206316 0.378186
vt 0.155028 0.344089
vt 0.896175 0.282885
vt 0.870663 0.174892
vt 0.539575 0.580737
vt 0.520455 0.684734
vt 0.622627 0.581780
vt 0.617335 0.678426
vt 0.949240 0.587705
vt 0.916733 0.604517
vt 0.944083 0.694636
vt 0.949240 0.587705
vt 0.348488 0.225548
vt 0.336809 0.082005
vt 0.460672 0.063535
vt 0.431026 0.176751
vt 0.758928 0.488146
vt 0.766456 0.640000
vt 0.766456 0.640000
vt 0.766741 0.707183
vt 0.672331 0.596657
vt 0.491069 0.166304
vt 0.485748 0.254952
vt 0.447322 0.276247
vt 0.431026 0.176751
vt 0.565426 0.199969
vt 0.556413 0.271543
vt 0.485748 0.254952
vt 0.491069 0.166304
vt 0.512673 0.310590
vt 0.481603 0.323059
vt 0.560004 0.310321
vt 0.506205 0.350977
vt 0.512673 0.310590
vt 0.266533 0.646047
vt 0.220811 0.635843
vt 0.215363 0.578539
vt 0.276846 0.583529
vt 0.619708 0.321108
vt 0.559475 0.342029
vt 0.560004 0.310321
vt 0.288525 0.695621
vt 0.278588 0.749240
vt 0.226456 0.694739
vt 0.288525 0.695621
vt 0.226456 0.694739
vt 0.149628 0.688747
vt 0.140662 0.629249
vt 0.220811 0.635843
vt 0.218381 0.752553
vt 0.149628 0.688747
vt 0.226456 0.694739
vt 0.143231 0.752483
vt 0.060049 0.668982
vt 0.149628 0.688747
vt 0.854473 0.349296
vt 0.720806 0.251159
vt 0.794976 0.248970
vt 0.116225 0.149680
vt 0.046020 0.277128
vt 0.116225 0.149680
vt 0.165692 0.199396
vt 0.115533 0.299946
vt 0.046020 0.277128
vt 0.133867 0.094672
vt 0.116225 0.149680
vt 0.056221 0.145884
vt 0.133867 0.094672
vt 0.085645 0.065345
vt 0.187902 0.035191
vt 0.226136 0.127633
vt 0.133867 0.094672
vt 0.226136 0.127633
vt 0.273683 0.187557
vt 0.206193 0.274302
vt 0.165692 0.199396
vt 0.273048 0.064123
vt 0.273683 0.187557
vt 0.226136 0.127633
vt 0.316518 0.068429
vt 0.335575 0.267841
vt 0.273683 0.187557
vt 0.422948 0.654063
vt 0.404599 0.713241
vt 0.439840 0.553878
vt 0.422948 0.654063
vt 0.340137 0.610197
vt 0.439840 0.553878
vt 0.539575 0.580737
vt 0.520455 0.684734
vt 0.422948 0.654063
vt 0.422729 0.459207
vt 0.439840 0.553878
vt 0.339988 0.536299
vt 0.422729 0.459207
vt 0.336833 0.476818
vt 0.429528 0.400325
vt 0.529375 0.479105
vt 0.422729 0.459207
vt 0.529375 0.479105
vt 0.622627 0.581780
vt 0.539575 0.580737
vt 0.517650 0.412671
vt 0.604166 0.482239
vt 0.529375 0.479105
vt 0.586459 0.423461
vt 0.604166 0.482239
vt 0.058285 0.569867
vt 0.016271 0.536299
vt 0.090851 0.431859
vt 0.082613 0.506661
vt 0.053708 0.620010
vt 0.016271 0.536299
vt 0.058285 0.569867
vt 0.786060 0.070157
vt 0.818683 0.137473
vt 0.060049 0.668982
vt 0.000000 0.608449
vt 0.053708 0.620010
vt 0.069266 0.722735
vt 0.012308 0.682984
vt 0.060049 0.668982
vt 0.907061 0.133559
vt 0.855242 0.125920
vt 0.857058 0.070133
vt 0.855242 0.125920
vt 0.829103 0.182611
vt 0.758736 0.168010
vt 0.818683 0.137473
vt 0.907061 0.133559
vt 0.870663 0.174892
vt 0.829103 0.182611
vt 0.855242 0.125920
vt 0.870663 0.174892
vt 0.794976 0.248970
vt 0.720806 0.251159
vt 0.829103 0.182611
vt 0.448079 0.354288
vt 0.408067 0.318081
vt 0.447322 0.276247
vt 0.481603 0.323059
vt 0.223692 0.502410
vt 0.270084 0.523882
vt 0.747834 0.361119
vt 0.758928 0.488146
vt 0.677773 0.459778
vt 0.152906 0.498683
vt 0.232244 0.440506
vt 0.223692 0.502410
vt 0.082613 0.506661
vt 0.090851 0.431859
vt 0.130148 0.436240
vt 0.152906 0.498683
vt 0.869574 0.490922
vt 0.821728 0.494375
vt 0.834672 0.401576
vt 0.821728 0.494375
vt 0.853441 0.628842
vt 0.766456 0.640000
vt 0.758928 0.488146
vt 0.869574 0.490922
vt 0.916733 0.604517
vt 0.853441 0.628842
vt 0.821728 0.494375
vt 0.916733 0.604517
vt 0.905653 0.682602
vt 0.844101 0.700647
vt 0.853441 0.628842
vt 0.554998 0.057463
vt 0.460672 0.063535
vt 0.489191 0.000000
vt 0.608937 0.072162
vt 0.554998 0.057463
vt 0.563922 0.000091
vt 0.608937 0.072162
vt 0.565426 0.199969
vt 0.491069 0.166304
vt 0.554998 0.057463
vt 0.187902 0.035191
vt 0.273048 0.064123
vt 0.646477 0.441109
vt 0.586459 0.423461
vt 0.586459 0.423461
vt 0.517650 0.412671
vt 0.579472 0.365264
vt 0.642437 0.169965
vt 0.628288 0.255903
vt 0.556413 0.271543
vt 0.565426 0.199969
vt 0.628288 0.255903
vt 0.642437 0.169965
vt 0.693822 0.237100
vt 0.619708 0.321108
vt 0.628288 0.255903
vn -0.182117 -0.865859 0.465963
vn -0.311824 -0.794213 0.521528
vn -0.077530 -0.980116 0.182650
vn -0.273004 -0.950893 0.145847
vn -0.382779 0.911099 0.152901
vn -0.324502 0.805899 0.495202
vn -0.068189 0.987229 0.143975
vn -0.323891 0.720440 0.613238
vn 0.322146 0.922171 0.214061
vn 0.396490 0.612395 0.683936
vn 0.777520 0.562534 0.281101
vn 0.477609 0.366385 0.798531
vn -0.300221 0.096007 0.949026
vn -0.649768 0.270481 0.710381
vn -0.890526 0.348998 -0.291828
vn -0.393642 0.891858 -0.222790
vn -0.593379 0.156881 -0.789487
vn -0.263820 0.843074 -0.468642
vn -0.042710 -0.869896 -0.491382
vn 0.037050 -0.830262 -0.556141
vn -0.226580 -0.720793 -0.655072
vn -0.204780 -0.611874 -0.763986
vn 0.020275 -0.957394 -0.288073
vn -0.056440 -0.998342 -0.011317
vn -0.080174 -0.970733 -0.226382
vn -0.162480 -0.986566 0.016942
vn 0.002476 -0.989582 -0.143950
vn 0.132292 -0.991057 -0.017439
vn -0.080047 -0.965584 -0.247468
vn -0.029460 -0.997370 -0.066225
vn 0.133113 -0.981474 0.137801
vn 0.101371 -0.879968 0.464090
vn -0.068415 -0.985909 0.152650
vn -0.117725 -0.891273 0.437919
vn -0.054987 0.995409 0.078340
vn -0.454247 0.671803 0.585098
vn 0.029486 0.989101 0.144257
vn 0.209977 0.562980 0.799352
vn 0.019921 0.985283 -0.169764
vn -0.017550 0.998625 -0.049389
vn 0.116256 0.976154 -0.183322
vn 0.109599 0.993953 0.006762
vn -0.047605 0.992357 -0.113849
vn -0.050604 0.998175 -0.032959
vn -0.277512 0.960710 0.004756
vn 0.936824 -0.328335 0.120656
vn 0.961608 0.197411 0.190631
vn 0.535435 -0.594255 0.600142
vn 0.742799 -0.067834 0.666069
vn 0.940152 -0.321607 -0.112615
vn 0.990674 -0.128991 0.043891
vn 0.987862 -0.153014 0.026764
vn 0.972307 0.227478 0.053606
vn 0.989139 0.022792 0.145205
vn 0.631760 0.770467 0.085202
vn 0.900738 0.416498 0.123287
vn 0.399879 0.913093 0.079736
vn -0.321033 -0.512076 0.796691
vn -0.412953 -0.302600 0.859013
vn -0.674876 -0.554874 0.486474
vn -0.871192 -0.000219 0.490943
vn 0.016999 -0.104640 0.994365
vn 0.060772 -0.162835 0.984780
vn 0.138152 -0.447680 0.883457
vn -0.060472 0.083624 0.994661
vn 0.126615 -0.235534 0.963583
vn -0.029402 -0.526394 0.849732
vn -0.898515 -0.189537 -0.395912
vn -0.580943 -0.218625 -0.784034
vn -0.399682 -0.738583 -0.542908
vn -0.991229 0.129554 0.026089
vn -0.992011 0.008179 0.125883
vn -0.805765 -0.585203 0.091000
vn -0.697062 -0.716816 0.016725
vn -0.831053 0.512591 0.215875
vn -0.851312 0.511692 0.115931
vn -0.306019 -0.162081 -0.938127
vn -0.387563 -0.404039 -0.828582
vn 0.444748 0.168775 -0.879610
vn 0.228596 -0.495191 -0.838171
vn 0.131641 -0.071804 -0.988694
vn -0.111562 -0.563835 -0.818318
vn -0.260946 -0.770824 -0.581152
vn -0.073012 -0.925343 -0.372033
vn -0.001901 -0.705753 -0.708455
vn -0.061506 -0.869487 -0.490111
vn 0.540164 -0.840929 -0.032592
vn 0.256056 -0.805434 -0.534519
vn 0.568175 -0.821378 0.050150
vn 0.501729 -0.859078 0.101257
vn 0.323850 -0.873937 0.362430
vn 0.228691 0.849307 -0.475792
vn 0.533384 0.744919 -0.400745
vn 0.209512 0.853723 -0.476720
vn 0.009545 0.851446 -0.524355
vn 0.455464 -0.396850 -0.796908
vn 0.731470 -0.192137 -0.654244
vn 0.820949 0.020673 -0.570628
f 30/2/1 3/3/2 75/1/3
f 75/1/3 3/3/2 44/4/4
f 50/6/5 7/7/6 76/5/7
f 76/5/7 7/7/6 37/8/8
f 35/10/9 6/11/10 77/9/11
f 77/9/11 6/11/10 31/12/12
f 37/14/8 7/15/6 78/13/13
f 78/13/13 7/15/6 33/16/14
f 79/17/15 38/18/16 34/20/17
f 34/20/17 38/18/16 8/19/18
f 28/22/19 4/23/20 80/21/21
f 80/21/21 4/23/20 46/24/22
f 81/25/23 51/26/24 32/28/25
f 32/28/25 51/26/24 14/27/26
f 82/29/27 52/30/28 53/32/29
f 53/32/29 52/30/28 21/31/30
f 83/33/31 42/34/32 54/36/33
f 54/36/33 42/34/32 12/35/34
f 55/38/35 19/39/36 84/37/37
f 84/37/37 19/39/36 49/40/38
f 56/42/39 22/43/40 85/41/41
f 85/41/41 22/43/40 57/44/42
f 86/45/43 38/46/16 58/48/44
f 58/48/44 38/46/16 20/47/45
f 87/49/46 59/50/47 43/52/48
f 43/52/48 59/50/47 13/51/49
f 88/53/50 60/54/51 61/56/52
f 61/56/52 60/54/51 23/55/53
f 89/57/54 47/58/55 62/60/56
f 62/60/56 47/58/55 17/59/57
f 90/61/58 63/62/59 45/64/60
f 45/64/60 63/62/59 15/63/61
f 64/66/62 24/67/63 91/65/64
f 91/65/64 24/67/63 65/68/65
f 92/69/66 49/70/38 66/162/67
f 66/162/67 49/70/38 19/71/36
f 67/73/68 16/74/69 93/72/70
f 93/72/70 16/74/69 46/75/22
f 68/77/71 25/78/72 94/76/73
f 94/76/73 25/78/72 69/79/74
f 95/80/75 50/81/5 70/164/76
f 70/164/76 50/81/5 20/163/45
f 96/82/77 71/83/78 34/85/17
f 34/85/17 71/83/78 16/84/69
f 97/86/79 72/87/80 73/89/81
f 73/89/81 72/87/80 26/88/82
f 40/166/83 10/167/84 98/165/85
f 98/165/85 10/167/84 74/168/86
f 75/170/3 44/171/4 51/169/24
f 51/169/24 44/171/4 14/172/26
f 21/173/30 54/174/33 51/176/24
f 51/176/24 54/174/33 75/175/3
f 12/178/34 30/179/1 54/177/33
f 54/177/33 30/179/1 75/180/3
f 76/182/7 37/183/8 55/181/35
f 55/181/35 37/183/8 19/184/36
f 22/185/40 58/186/44 55/188/35
f 55/188/35 58/186/44 76/187/7
f 58/90/44 20/189/45 76/91/7
f 76/91/7 20/189/45 50/190/5
f 77/92/11 31/93/12 59/191/47
f 59/191/47 31/93/12 13/192/49
f 62/94/56 77/95/11 23/193/53
f 23/193/53 77/95/11 59/194/47
f 17/195/57 35/196/9 62/96/56
f 62/96/56 35/196/9 77/97/11
f 78/99/13 33/100/14 63/98/59
f 63/98/59 33/100/14 15/101/61
f 24/102/63 66/103/67 63/198/59
f 63/198/59 66/103/67 78/197/13
f 19/200/36 37/201/8 66/199/67
f 66/199/67 37/201/8 78/202/13
f 67/203/68 79/204/15 16/105/69
f 16/105/69 79/204/15 34/104/17
f 70/206/76 79/106/15 25/205/72
f 25/205/72 79/106/15 67/207/68
f 20/209/45 38/210/16 70/208/76
f 70/208/76 38/210/16 79/211/15
f 71/212/78 80/213/21 16/215/69
f 16/215/69 80/213/21 46/214/22
f 74/108/86 80/109/21 26/107/82
f 26/107/82 80/109/21 71/110/78
f 10/111/84 28/112/19 74/216/86
f 74/216/86 28/112/19 80/217/21
f 28/218/19 81/113/23 4/220/20
f 4/220/20 81/113/23 32/219/25
f 53/222/29 81/223/23 10/221/84
f 10/221/84 81/223/23 28/224/19
f 53/225/29 21/114/30 81/227/23
f 81/227/23 21/114/30 51/226/24
f 40/115/83 82/116/27 10/117/84
f 10/117/84 82/116/27 53/228/29
f 39/118/87 82/230/27 1/229/88
f 1/229/88 82/230/27 40/231/83
f 39/232/87 9/233/89 82/235/27
f 82/235/27 9/233/89 52/234/28
f 52/236/28 83/119/31 21/238/30
f 21/238/30 83/119/31 54/237/33
f 9/239/89 27/120/90 52/241/28
f 52/241/28 27/120/90 83/240/31
f 27/242/90 2/121/91 83/244/31
f 83/244/31 2/121/91 42/243/32
f 35/122/9 84/245/37 6/123/10
f 6/123/10 84/245/37 49/246/38
f 57/248/42 84/249/37 17/247/57
f 17/247/57 84/249/37 35/250/9
f 57/124/42 22/251/40 84/253/37
f 84/253/37 22/251/40 55/252/35
f 85/126/41 57/254/42 47/125/55
f 47/125/55 57/254/42 17/255/57
f 48/127/92 85/257/41 5/256/93
f 5/256/93 85/257/41 47/258/55
f 18/260/94 56/261/39 48/259/92
f 48/259/92 56/261/39 85/262/41
f 56/263/39 86/128/43 22/265/40
f 22/265/40 86/128/43 58/264/44
f 18/266/94 36/129/95 56/268/39
f 56/268/39 36/129/95 86/267/43
f 36/130/95 8/269/18 86/131/43
f 86/131/43 8/269/18 38/270/16
f 27/132/90 87/271/46 2/273/91
f 2/273/91 87/271/46 43/272/48
f 9/274/89 61/275/52 27/277/90
f 27/277/90 61/275/52 87/276/46
f 61/133/52 23/278/53 87/280/46
f 87/280/46 23/278/53 59/279/47
f 88/135/50 61/281/52 39/134/87
f 39/134/87 61/281/52 9/282/89
f 41/136/96 88/284/50 1/283/88
f 1/283/88 88/284/50 39/285/87
f 41/286/96 11/137/97 88/288/50
f 88/288/50 11/137/97 60/287/51
f 60/289/51 89/138/54 23/291/53
f 23/291/53 89/138/54 62/290/56
f 11/292/97 29/139/98 60/293/51
f 60/293/51 29/139/98 89/140/54
f 29/294/98 5/295/93 89/297/54
f 89/297/54 5/295/93 47/296/55
f 30/298/1 90/141/58 3/300/2
f 3/300/2 90/141/58 45/299/60
f 12/301/34 65/302/65 30/143/1
f 30/143/1 65/302/65 90/142/58
f 24/144/63 63/304/59 65/303/65
f 65/303/65 63/304/59 90/305/58
f 91/145/64 65/307/65 42/306/32
f 42/306/32 65/307/65 12/308/34
f 43/309/48 91/310/64 2/146/91
f 2/146/91 91/310/64 42/311/32
f 13/313/49 64/314/62 43/312/48
f 43/312/48 64/314/62 91/315/64
f 64/316/62 92/317/66 24/319/63
f 24/319/63 92/317/66 66/318/67
f 13/320/49 31/321/12 64/323/62
f 64/323/62 31/321/12 92/322/66
f 31/324/12 6/325/10 92/327/66
f 92/327/66 6/325/10 49/326/38
f 93/147/70 46/148/22 32/328/25
f 32/328/25 46/148/22 4/329/20
f 14/330/26 69/331/74 32/149/25
f 32/149/25 69/331/74 93/332/70
f 25/150/72 67/334/68 69/333/74
f 69/333/74 67/334/68 93/335/70
f 44/336/4 94/337/73 14/339/26
f 14/339/26 94/337/73 69/338/74
f 3/151/2 45/340/60 44/342/4
f 44/342/4 45/340/60 94/341/73
f 15/344/61 68/345/71 45/343/60
f 45/343/60 68/345/71 94/346/73
f 95/348/75 70/349/76 68/347/71
f 68/347/71 70/349/76 25/350/72
f 33/352/14 95/353/75 15/351/61
f 15/351/61 95/353/75 68/354/71
f 33/152/14 7/355/6 95/357/75
f 95/357/75 7/355/6 50/356/5
f 36/153/95 96/358/77 8/360/18
f 8/360/18 96/358/77 34/359/17
f 73/362/81 96/363/77 18/361/94
f 18/361/94 96/363/77 36/364/95
f 73/365/81 26/154/82 96/366/77
f 96/366/77 26/154/82 71/155/78
f 48/367/92 97/368/79 18/157/94
f 18/157/94 97/368/79 73/156/81
f 5/369/93 29/370/98 48/371/92
f 48/371/92 29/370/98 97/158/79
f 29/372/98 11/373/97 97/375/79
f 97/375/79 11/373/97 72/374/80
f 72/159/80 98/160/85 26/377/82
f 26/377/82 98/160/85 74/376/86
f 11/378/97 41/161/96 72/380/80
f 72/380/80 41/161/96 98/379/85
f 41//96 1//88 98//85
f 98//85 1//88 40//83
